<svg width="16" height="16" viewBox="0 0 16 16" fill="none" xmlns="http://www.w3.org/2000/svg">
<path opacity="0.3" d="M3.3335 12.6667H12.6668V3.33337H3.3335V12.6667ZM4.94016 7.73337L6.66016 9.45337L11.0535 5.06004L11.9935 6.00004L6.66016 11.3334L4.00016 8.67337L4.94016 7.73337Z" fill="#828282"/>
<path d="M12.6667 2H3.33333C2.6 2 2 2.6 2 3.33333V12.6667C2 13.4 2.6 14 3.33333 14H12.6667C13.4 14 14 13.4 14 12.6667V3.33333C14 2.6 13.4 2 12.6667 2ZM12.6667 12.6667H3.33333V3.33333H12.6667V12.6667ZM11.9933 6L11.0533 5.05333L6.66 9.44667L4.94 7.73333L3.99333 8.67333L6.66 11.3333L11.9933 6Z" fill="#323232"/>
</svg>
