<svg width="32" height="32" viewBox="0 0 32 32" fill="none" xmlns="http://www.w3.org/2000/svg">
<rect width="32" height="32" fill="#F2F2F2"/>
<path opacity="0.3" d="M11.3335 20.0533V20.6666H11.9468L17.9868 14.6266L17.3735 14.0133L11.3335 20.0533Z" fill="#828282"/>
<path d="M10 19.5V22H12.5L19.8733 14.6267L17.3733 12.1267L10 19.5ZM11.9467 20.6667H11.3333V20.0533L17.3733 14.0133L17.9867 14.6267L11.9467 20.6667ZM21.8067 11.7533L20.2467 10.1933C20.1133 10.06 19.9467 10 19.7733 10C19.6 10 19.4333 10.0667 19.3067 10.1933L18.0867 11.4133L20.5867 13.9133L21.8067 12.6933C22.0667 12.4333 22.0667 12.0133 21.8067 11.7533Z" fill="#828282"/>
</svg>
