<svg width="32" height="32" viewBox="0 0 32 32" fill="none" xmlns="http://www.w3.org/2000/svg">
<rect width="32" height="32" fill="#F2F2F2"/>
<path opacity="0.3" d="M11.3335 20.6667H20.6668V13.3334H11.3335V20.6667ZM16.0002 14.6667L18.6668 17.3334H16.9668V19.3334H15.0268V17.3334H13.3335L16.0002 14.6667Z" fill="#828282"/>
<path d="M21.6933 11.4867L20.7667 10.3667C20.5867 10.14 20.3133 10 20 10H12C11.6867 10 11.4133 10.14 11.2267 10.3667L10.3067 11.4867C10.1133 11.7133 10 12.0133 10 12.3333V20.6667C10 21.4 10.6 22 11.3333 22H20.6667C21.4 22 22 21.4 22 20.6667V12.3333C22 12.0133 21.8867 11.7133 21.6933 11.4867ZM12.16 11.3333H19.84L20.3933 12H11.6133L12.16 11.3333ZM20.6667 20.6667H11.3333V13.3333H20.6667V20.6667ZM15.0333 19.3333H16.9667V17.3333H18.6667L16 14.6667L13.3333 17.3333H15.0333V19.3333Z" fill="#828282"/>
</svg>
